<?xml version="1.0"?>
<!-- Generated by SVGo -->
<svg width="320.952mm" height="130.452mm"
     viewBox="0.000 0.000 320.952 130.452"
     xmlns="http://www.w3.org/2000/svg" 
     xmlns:xlink="http://www.w3.org/1999/xlink">
<polygon points="314.952,5.001 315.030,5.004 315.108,5.013 315.185,5.028 315.261,5.049 315.334,5.077 315.405,5.109 315.474,5.148 315.539,5.191 315.601,5.240 315.659,5.293 315.712,5.351 315.761,5.413 315.804,5.478 315.843,5.547 315.875,5.618 315.903,5.691 315.924,5.767 315.939,5.844 315.948,5.922 315.952,6.001 315.952,124.452 315.948,124.530 315.939,124.608 315.924,124.685 315.903,124.761 315.875,124.834 315.843,124.905 315.804,124.974 315.761,125.039 315.712,125.101 315.659,125.159 315.601,125.212 315.539,125.261 315.474,125.304 315.405,125.343 315.334,125.375 315.261,125.403 315.185,125.424 315.108,125.439 315.030,125.448 314.952,125.452 6.001,125.452 5.922,125.448 5.844,125.439 5.767,125.424 5.691,125.403 5.618,125.375 5.547,125.343 5.478,125.304 5.413,125.261 5.351,125.212 5.293,125.159 5.240,125.101 5.191,125.039 5.148,124.974 5.109,124.905 5.077,124.834 5.049,124.761 5.028,124.685 5.013,124.608 5.004,124.530 5.000,124.451 5.001,6.001 5.004,5.922 5.013,5.844 5.028,5.767 5.049,5.691 5.077,5.618 5.109,5.547 5.148,5.478 5.191,5.413 5.240,5.351 5.293,5.293 5.351,5.240 5.413,5.191 5.478,5.148 5.547,5.109 5.618,5.077 5.691,5.049 5.767,5.028 5.844,5.013 5.922,5.004 6.001,5.000" style="fill:none;stroke-width:0.050000mm;stroke:black"/>
<polygon points="132.119,105.926 132.119,106.926 131.319,106.926 131.319,109.876 132.119,109.876 132.119,110.626 92.344,110.626 92.344,107.396 85.744,107.396 85.744,110.626 84.919,110.626 84.919,113.275 85.744,113.275 85.744,119.545 87.469,119.545 87.469,120.745 90.619,120.745 90.619,119.545 92.344,119.545 92.344,115.075 132.119,115.075 132.119,115.825 131.319,115.825 131.319,118.775 132.119,118.775 132.119,119.775 145.969,119.775 145.969,118.775 146.769,118.775 146.769,115.825 145.969,115.825 145.969,115.075 185.744,115.075 185.744,119.545 187.469,119.545 187.469,120.745 190.619,120.745 190.619,119.545 192.344,119.545 192.344,113.275 193.169,113.275 193.169,110.626 192.344,110.626 192.344,107.396 185.744,107.396 185.744,110.626 145.969,110.626 145.969,109.876 146.769,109.876 146.769,106.926 145.969,106.926 145.969,105.926" style="fill:none;stroke-width:0.050000mm;stroke:black"/>
<polygon points="296.426,105.926 296.426,106.926 295.626,106.926 295.626,109.876 296.426,109.876 296.426,115.825 295.626,115.825 295.626,118.775 296.426,118.775 296.426,119.775 310.276,119.775 310.276,118.775 311.076,118.775 311.076,115.825 310.276,115.825 310.276,109.876 311.076,109.876 311.076,106.926 310.276,106.926 310.276,105.926" style="fill:none;stroke-width:0.050000mm;stroke:black"/>
<polygon points="277.376,105.926 277.376,106.926 276.576,106.926 276.576,109.876 277.376,109.876 277.376,115.825 276.576,115.825 276.576,118.775 277.376,118.775 277.376,119.775 291.226,119.775 291.226,118.775 292.026,118.775 292.026,115.825 291.226,115.825 291.226,109.876 292.026,109.876 292.026,106.926 291.226,106.926 291.226,105.926" style="fill:none;stroke-width:0.050000mm;stroke:black"/>
<polygon points="258.326,105.926 258.326,106.926 257.525,106.926 257.525,109.876 258.326,109.876 258.326,115.825 257.525,115.825 257.525,118.775 258.326,118.775 258.326,119.775 272.176,119.775 272.176,118.775 272.976,118.775 272.976,115.825 272.176,115.825 272.176,109.876 272.976,109.876 272.976,106.926 272.176,106.926 272.176,105.926" style="fill:none;stroke-width:0.050000mm;stroke:black"/>
<polygon points="220.226,105.926 220.226,106.926 219.426,106.926 219.426,109.876 220.226,109.876 220.226,115.825 219.426,115.825 219.426,118.775 220.226,118.775 220.226,119.775 234.076,119.775 234.076,118.775 234.876,118.775 234.876,115.825 234.076,115.825 234.076,109.876 234.876,109.876 234.876,106.926 234.076,106.926 234.076,105.926" style="fill:none;stroke-width:0.050000mm;stroke:black"/>
<polygon points="201.175,105.926 201.175,106.926 200.376,106.926 200.376,109.876 201.175,109.876 201.175,115.825 200.376,115.825 200.376,118.775 201.175,118.775 201.175,119.775 215.026,119.775 215.026,118.775 215.826,118.775 215.826,115.825 215.026,115.825 215.026,109.876 215.826,109.876 215.826,106.926 215.026,106.926 215.026,105.926" style="fill:none;stroke-width:0.050000mm;stroke:black"/>
<polygon points="60.682,105.926 60.682,106.926 59.882,106.926 59.882,109.876 60.682,109.876 60.682,115.825 59.882,115.825 59.882,118.775 60.682,118.775 60.682,119.775 74.532,119.775 74.532,118.775 75.332,118.775 75.332,115.825 74.532,115.825 74.532,109.876 75.332,109.876 75.332,106.926 74.532,106.926 74.532,105.926" style="fill:none;stroke-width:0.050000mm;stroke:black"/>
<polygon points="36.869,105.926 36.869,106.926 36.069,106.926 36.069,109.876 36.869,109.876 36.869,115.825 36.069,115.825 36.069,118.775 36.869,118.775 36.869,119.775 50.719,119.775 50.719,118.775 51.519,118.775 51.519,115.825 50.719,115.825 50.719,109.876 51.519,109.876 51.519,106.926 50.719,106.926 50.719,105.926" style="fill:none;stroke-width:0.050000mm;stroke:black"/>
<polygon points="13.057,105.926 13.057,106.926 12.257,106.926 12.257,109.876 13.057,109.876 13.057,115.825 12.257,115.825 12.257,118.775 13.057,118.775 13.057,119.775 26.907,119.775 26.907,118.775 27.707,118.775 27.707,115.825 26.907,115.825 26.907,109.876 27.707,109.876 27.707,106.926 26.907,106.926 26.907,105.926" style="fill:none;stroke-width:0.050000mm;stroke:black"/>
<polygon points="22.582,86.876 22.582,87.876 21.782,87.876 21.782,90.826 22.582,90.826 22.582,91.576 20.907,91.576 20.907,88.346 14.307,88.346 14.307,91.576 13.482,91.576 13.482,94.226 14.307,94.226 14.307,100.495 16.031,100.495 16.031,101.696 19.182,101.696 19.182,100.495 20.907,100.495 20.907,96.025 22.582,96.025 22.582,96.775 21.782,96.775 21.782,99.726 22.582,99.726 22.582,100.726 36.432,100.726 36.432,99.726 37.232,99.726 37.232,96.775 36.432,96.775 36.432,96.025 38.107,96.025 38.107,100.495 39.832,100.495 39.832,101.696 42.982,101.696 42.982,100.495 44.707,100.495 44.707,94.226 45.532,94.226 45.532,91.576 44.707,91.576 44.707,88.346 38.107,88.346 38.107,91.576 36.432,91.576 36.432,90.826 37.232,90.826 37.232,87.876 36.432,87.876 36.432,86.876" style="fill:none;stroke-width:0.050000mm;stroke:black"/>
<polygon points="277.376,86.876 277.376,87.876 276.576,87.876 276.576,90.826 277.376,90.826 277.376,96.775 276.576,96.775 276.576,99.726 277.376,99.726 277.376,100.726 291.226,100.726 291.226,99.726 292.026,99.726 292.026,96.775 291.226,96.775 291.226,90.826 292.026,90.826 292.026,87.876 291.226,87.876 291.226,86.876" style="fill:none;stroke-width:0.050000mm;stroke:black"/>
<polygon points="224.988,86.876 224.988,87.876 224.188,87.876 224.188,90.826 224.988,90.826 224.988,96.775 224.188,96.775 224.188,99.726 224.988,99.726 224.988,100.726 238.838,100.726 238.838,99.726 239.638,99.726 239.638,96.775 238.838,96.775 238.838,90.826 239.638,90.826 239.638,87.876 238.838,87.876 238.838,86.876" style="fill:none;stroke-width:0.050000mm;stroke:black"/>
<polygon points="205.938,86.876 205.938,87.876 205.138,87.876 205.138,90.826 205.938,90.826 205.938,96.775 205.138,96.775 205.138,99.726 205.938,99.726 205.938,100.726 219.788,100.726 219.788,99.726 220.588,99.726 220.588,96.775 219.788,96.775 219.788,90.826 220.588,90.826 220.588,87.876 219.788,87.876 219.788,86.876" style="fill:none;stroke-width:0.050000mm;stroke:black"/>
<polygon points="186.888,86.876 186.888,87.876 186.088,87.876 186.088,90.826 186.888,90.826 186.888,96.775 186.088,96.775 186.088,99.726 186.888,99.726 186.888,100.726 200.738,100.726 200.738,99.726 201.538,99.726 201.538,96.775 200.738,96.775 200.738,90.826 201.538,90.826 201.538,87.876 200.738,87.876 200.738,86.876" style="fill:none;stroke-width:0.050000mm;stroke:black"/>
<polygon points="167.838,86.876 167.838,87.876 167.038,87.876 167.038,90.826 167.838,90.826 167.838,96.775 167.038,96.775 167.038,99.726 167.838,99.726 167.838,100.726 181.688,100.726 181.688,99.726 182.488,99.726 182.488,96.775 181.688,96.775 181.688,90.826 182.488,90.826 182.488,87.876 181.688,87.876 181.688,86.876" style="fill:none;stroke-width:0.050000mm;stroke:black"/>
<polygon points="148.788,86.876 148.788,87.876 147.988,87.876 147.988,90.826 148.788,90.826 148.788,96.775 147.988,96.775 147.988,99.726 148.788,99.726 148.788,100.726 162.638,100.726 162.638,99.726 163.438,99.726 163.438,96.775 162.638,96.775 162.638,90.826 163.438,90.826 163.438,87.876 162.638,87.876 162.638,86.876" style="fill:none;stroke-width:0.050000mm;stroke:black"/>
<polygon points="129.738,86.876 129.738,87.876 128.938,87.876 128.938,90.826 129.738,90.826 129.738,96.775 128.938,96.775 128.938,99.726 129.738,99.726 129.738,100.726 143.588,100.726 143.588,99.726 144.388,99.726 144.388,96.775 143.588,96.775 143.588,90.826 144.388,90.826 144.388,87.876 143.588,87.876 143.588,86.876" style="fill:none;stroke-width:0.050000mm;stroke:black"/>
<polygon points="110.688,86.876 110.688,87.876 109.888,87.876 109.888,90.826 110.688,90.826 110.688,96.775 109.888,96.775 109.888,99.726 110.688,99.726 110.688,100.726 124.538,100.726 124.538,99.726 125.338,99.726 125.338,96.775 124.538,96.775 124.538,90.826 125.338,90.826 125.338,87.876 124.538,87.876 124.538,86.876" style="fill:none;stroke-width:0.050000mm;stroke:black"/>
<polygon points="91.638,86.876 91.638,87.876 90.838,87.876 90.838,90.826 91.638,90.826 91.638,96.775 90.838,96.775 90.838,99.726 91.638,99.726 91.638,100.726 105.488,100.726 105.488,99.726 106.288,99.726 106.288,96.775 105.488,96.775 105.488,90.826 106.288,90.826 106.288,87.876 105.488,87.876 105.488,86.876" style="fill:none;stroke-width:0.050000mm;stroke:black"/>
<polygon points="72.588,86.876 72.588,87.876 71.788,87.876 71.788,90.826 72.588,90.826 72.588,96.775 71.788,96.775 71.788,99.726 72.588,99.726 72.588,100.726 86.438,100.726 86.438,99.726 87.238,99.726 87.238,96.775 86.438,96.775 86.438,90.826 87.238,90.826 87.238,87.876 86.438,87.876 86.438,86.876" style="fill:none;stroke-width:0.050000mm;stroke:black"/>
<polygon points="53.538,86.876 53.538,87.876 52.738,87.876 52.738,90.826 53.538,90.826 53.538,96.775 52.738,96.775 52.738,99.726 53.538,99.726 53.538,100.726 67.388,100.726 67.388,99.726 68.188,99.726 68.188,96.775 67.388,96.775 67.388,90.826 68.188,90.826 68.188,87.876 67.388,87.876 67.388,86.876" style="fill:none;stroke-width:0.050000mm;stroke:black"/>
<polygon points="265.469,67.826 265.469,68.826 264.669,68.826 264.669,71.776 265.469,71.776 265.469,72.526 263.794,72.526 263.794,69.296 257.193,69.296 257.193,72.526 256.369,72.526 256.369,75.176 257.193,75.176 257.193,81.446 258.919,81.446 258.919,82.646 262.068,82.646 262.068,81.446 263.794,81.446 263.794,76.976 265.469,76.976 265.469,77.726 264.669,77.726 264.669,80.676 265.469,80.676 265.469,81.676 279.319,81.676 279.319,80.676 280.119,80.676 280.119,77.726 279.319,77.726 279.319,76.976 280.994,76.976 280.994,81.446 282.719,81.446 282.719,82.646 285.869,82.646 285.869,81.446 287.594,81.446 287.594,75.176 288.419,75.176 288.419,72.526 287.594,72.526 287.594,69.296 280.994,69.296 280.994,72.526 279.319,72.526 279.319,71.776 280.119,71.776 280.119,68.826 279.319,68.826 279.319,67.826" style="fill:none;stroke-width:0.050000mm;stroke:black"/>
<polygon points="234.513,67.826 234.513,68.826 233.713,68.826 233.713,71.776 234.513,71.776 234.513,77.726 233.713,77.726 233.713,80.676 234.513,80.676 234.513,81.676 248.363,81.676 248.363,80.676 249.163,80.676 249.163,77.726 248.363,77.726 248.363,71.776 249.163,71.776 249.163,68.826 248.363,68.826 248.363,67.826" style="fill:none;stroke-width:0.050000mm;stroke:black"/>
<polygon points="215.463,67.826 215.463,68.826 214.663,68.826 214.663,71.776 215.463,71.776 215.463,77.726 214.663,77.726 214.663,80.676 215.463,80.676 215.463,81.676 229.313,81.676 229.313,80.676 230.113,80.676 230.113,77.726 229.313,77.726 229.313,71.776 230.113,71.776 230.113,68.826 229.313,68.826 229.313,67.826" style="fill:none;stroke-width:0.050000mm;stroke:black"/>
<polygon points="196.413,67.826 196.413,68.826 195.613,68.826 195.613,71.776 196.413,71.776 196.413,77.726 195.613,77.726 195.613,80.676 196.413,80.676 196.413,81.676 210.263,81.676 210.263,80.676 211.063,80.676 211.063,77.726 210.263,77.726 210.263,71.776 211.063,71.776 211.063,68.826 210.263,68.826 210.263,67.826" style="fill:none;stroke-width:0.050000mm;stroke:black"/>
<polygon points="177.363,67.826 177.363,68.826 176.563,68.826 176.563,71.776 177.363,71.776 177.363,77.726 176.563,77.726 176.563,80.676 177.363,80.676 177.363,81.676 191.213,81.676 191.213,80.676 192.013,80.676 192.013,77.726 191.213,77.726 191.213,71.776 192.013,71.776 192.013,68.826 191.213,68.826 191.213,67.826" style="fill:none;stroke-width:0.050000mm;stroke:black"/>
<polygon points="158.313,67.826 158.313,68.826 157.513,68.826 157.513,71.776 158.313,71.776 158.313,77.726 157.513,77.726 157.513,80.676 158.313,80.676 158.313,81.676 172.163,81.676 172.163,80.676 172.963,80.676 172.963,77.726 172.163,77.726 172.163,71.776 172.963,71.776 172.963,68.826 172.163,68.826 172.163,67.826" style="fill:none;stroke-width:0.050000mm;stroke:black"/>
<polygon points="139.263,67.826 139.263,68.826 138.463,68.826 138.463,71.776 139.263,71.776 139.263,77.726 138.463,77.726 138.463,80.676 139.263,80.676 139.263,81.676 153.113,81.676 153.113,80.676 153.913,80.676 153.913,77.726 153.113,77.726 153.113,71.776 153.913,71.776 153.913,68.826 153.113,68.826 153.113,67.826" style="fill:none;stroke-width:0.050000mm;stroke:black"/>
<polygon points="120.213,67.826 120.213,68.826 119.413,68.826 119.413,71.776 120.213,71.776 120.213,77.726 119.413,77.726 119.413,80.676 120.213,80.676 120.213,81.676 134.063,81.676 134.063,80.676 134.863,80.676 134.863,77.726 134.063,77.726 134.063,71.776 134.863,71.776 134.863,68.826 134.063,68.826 134.063,67.826" style="fill:none;stroke-width:0.050000mm;stroke:black"/>
<polygon points="101.163,67.826 101.163,68.826 100.363,68.826 100.363,71.776 101.163,71.776 101.163,77.726 100.363,77.726 100.363,80.676 101.163,80.676 101.163,81.676 115.013,81.676 115.013,80.676 115.813,80.676 115.813,77.726 115.013,77.726 115.013,71.776 115.813,71.776 115.813,68.826 115.013,68.826 115.013,67.826" style="fill:none;stroke-width:0.050000mm;stroke:black"/>
<polygon points="82.113,67.826 82.113,68.826 81.313,68.826 81.313,71.776 82.113,71.776 82.113,77.726 81.313,77.726 81.313,80.676 82.113,80.676 82.113,81.676 95.963,81.676 95.963,80.676 96.763,80.676 96.763,77.726 95.963,77.726 95.963,71.776 96.763,71.776 96.763,68.826 95.963,68.826 95.963,67.826" style="fill:none;stroke-width:0.050000mm;stroke:black"/>
<polygon points="63.063,67.826 63.063,68.826 62.263,68.826 62.263,71.776 63.063,71.776 63.063,77.726 62.263,77.726 62.263,80.676 63.063,80.676 63.063,81.676 76.913,81.676 76.913,80.676 77.713,80.676 77.713,77.726 76.913,77.726 76.913,71.776 77.713,71.776 77.713,68.826 76.913,68.826 76.913,67.826" style="fill:none;stroke-width:0.050000mm;stroke:black"/>
<polygon points="44.013,67.826 44.013,68.826 43.213,68.826 43.213,71.776 44.013,71.776 44.013,77.726 43.213,77.726 43.213,80.676 44.013,80.676 44.013,81.676 57.863,81.676 57.863,80.676 58.663,80.676 58.663,77.726 57.863,77.726 57.863,71.776 58.663,71.776 58.663,68.826 57.863,68.826 57.863,67.826" style="fill:none;stroke-width:0.050000mm;stroke:black"/>
<polygon points="17.819,67.826 17.819,68.826 17.019,68.826 17.019,71.776 17.819,71.776 17.819,77.726 17.019,77.726 17.019,80.676 17.819,80.676 17.819,81.676 31.669,81.676 31.669,80.676 32.469,80.676 32.469,77.726 31.669,77.726 31.669,71.776 32.469,71.776 32.469,68.826 31.669,68.826 31.669,67.826" style="fill:none;stroke-width:0.050000mm;stroke:black"/>
<polygon points="272.613,48.776 272.613,49.776 271.813,49.776 271.813,52.726 272.613,52.726 272.613,58.676 271.813,58.676 271.813,61.626 272.613,61.626 272.613,62.626 286.463,62.626 286.463,61.626 287.263,61.626 287.263,58.676 286.463,58.676 286.463,52.726 287.263,52.726 287.263,49.776 286.463,49.776 286.463,48.776" style="fill:none;stroke-width:0.050000mm;stroke:black"/>
<polygon points="248.801,48.776 248.801,49.776 248.001,49.776 248.001,52.726 248.801,52.726 248.801,58.676 248.001,58.676 248.001,61.626 248.801,61.626 248.801,62.626 262.651,62.626 262.651,61.626 263.451,61.626 263.451,58.676 262.651,58.676 262.651,52.726 263.451,52.726 263.451,49.776 262.651,49.776 262.651,48.776" style="fill:none;stroke-width:0.050000mm;stroke:black"/>
<polygon points="229.751,48.776 229.751,49.776 228.951,49.776 228.951,52.726 229.751,52.726 229.751,58.676 228.951,58.676 228.951,61.626 229.751,61.626 229.751,62.626 243.601,62.626 243.601,61.626 244.401,61.626 244.401,58.676 243.601,58.676 243.601,52.726 244.401,52.726 244.401,49.776 243.601,49.776 243.601,48.776" style="fill:none;stroke-width:0.050000mm;stroke:black"/>
<polygon points="210.701,48.776 210.701,49.776 209.901,49.776 209.901,52.726 210.701,52.726 210.701,58.676 209.901,58.676 209.901,61.626 210.701,61.626 210.701,62.626 224.551,62.626 224.551,61.626 225.351,61.626 225.351,58.676 224.551,58.676 224.551,52.726 225.351,52.726 225.351,49.776 224.551,49.776 224.551,48.776" style="fill:none;stroke-width:0.050000mm;stroke:black"/>
<polygon points="191.651,48.776 191.651,49.776 190.851,49.776 190.851,52.726 191.651,52.726 191.651,58.676 190.851,58.676 190.851,61.626 191.651,61.626 191.651,62.626 205.501,62.626 205.501,61.626 206.301,61.626 206.301,58.676 205.501,58.676 205.501,52.726 206.301,52.726 206.301,49.776 205.501,49.776 205.501,48.776" style="fill:none;stroke-width:0.050000mm;stroke:black"/>
<polygon points="172.601,48.776 172.601,49.776 171.801,49.776 171.801,52.726 172.601,52.726 172.601,58.676 171.801,58.676 171.801,61.626 172.601,61.626 172.601,62.626 186.451,62.626 186.451,61.626 187.251,61.626 187.251,58.676 186.451,58.676 186.451,52.726 187.251,52.726 187.251,49.776 186.451,49.776 186.451,48.776" style="fill:none;stroke-width:0.050000mm;stroke:black"/>
<polygon points="153.550,48.776 153.550,49.776 152.751,49.776 152.751,52.726 153.550,52.726 153.550,58.676 152.751,58.676 152.751,61.626 153.550,61.626 153.550,62.626 167.401,62.626 167.401,61.626 168.201,61.626 168.201,58.676 167.401,58.676 167.401,52.726 168.201,52.726 168.201,49.776 167.401,49.776 167.401,48.776" style="fill:none;stroke-width:0.050000mm;stroke:black"/>
<polygon points="134.500,48.776 134.500,49.776 133.701,49.776 133.701,52.726 134.500,52.726 134.500,58.676 133.701,58.676 133.701,61.626 134.500,61.626 134.500,62.626 148.351,62.626 148.351,61.626 149.150,61.626 149.150,58.676 148.351,58.676 148.351,52.726 149.150,52.726 149.150,49.776 148.351,49.776 148.351,48.776" style="fill:none;stroke-width:0.050000mm;stroke:black"/>
<polygon points="115.450,48.776 115.450,49.776 114.650,49.776 114.650,52.726 115.450,52.726 115.450,58.676 114.650,58.676 114.650,61.626 115.450,61.626 115.450,62.626 129.300,62.626 129.300,61.626 130.101,61.626 130.101,58.676 129.300,58.676 129.300,52.726 130.101,52.726 130.101,49.776 129.300,49.776 129.300,48.776" style="fill:none;stroke-width:0.050000mm;stroke:black"/>
<polygon points="96.400,48.776 96.400,49.776 95.601,49.776 95.601,52.726 96.400,52.726 96.400,58.676 95.601,58.676 95.601,61.626 96.400,61.626 96.400,62.626 110.250,62.626 110.250,61.626 111.050,61.626 111.050,58.676 110.250,58.676 110.250,52.726 111.050,52.726 111.050,49.776 110.250,49.776 110.250,48.776" style="fill:none;stroke-width:0.050000mm;stroke:black"/>
<polygon points="77.351,48.776 77.351,49.776 76.551,49.776 76.551,52.726 77.351,52.726 77.351,58.676 76.551,58.676 76.551,61.626 77.351,61.626 77.351,62.626 91.200,62.626 91.200,61.626 92.000,61.626 92.000,58.676 91.200,58.676 91.200,52.726 92.000,52.726 92.000,49.776 91.200,49.776 91.200,48.776" style="fill:none;stroke-width:0.050000mm;stroke:black"/>
<polygon points="58.301,48.776 58.301,49.776 57.500,49.776 57.500,52.726 58.301,52.726 58.301,58.676 57.500,58.676 57.500,61.626 58.301,61.626 58.301,62.626 72.150,62.626 72.150,61.626 72.950,61.626 72.950,58.676 72.150,58.676 72.150,52.726 72.950,52.726 72.950,49.776 72.150,49.776 72.150,48.776" style="fill:none;stroke-width:0.050000mm;stroke:black"/>
<polygon points="39.251,48.776 39.251,49.776 38.450,49.776 38.450,52.726 39.251,52.726 39.251,58.676 38.450,58.676 38.450,61.626 39.251,61.626 39.251,62.626 53.100,62.626 53.100,61.626 53.901,61.626 53.901,58.676 53.100,58.676 53.100,52.726 53.901,52.726 53.901,49.776 53.100,49.776 53.100,48.776" style="fill:none;stroke-width:0.050000mm;stroke:black"/>
<polygon points="15.438,48.776 15.438,49.776 14.638,49.776 14.638,52.726 15.438,52.726 15.438,58.676 14.638,58.676 14.638,61.626 15.438,61.626 15.438,62.626 29.288,62.626 29.288,61.626 30.088,61.626 30.088,58.676 29.288,58.676 29.288,52.726 30.088,52.726 30.088,49.776 29.288,49.776 29.288,48.776" style="fill:none;stroke-width:0.050000mm;stroke:black"/>
<polygon points="267.851,29.726 267.851,30.726 267.051,30.726 267.051,33.676 267.851,33.676 267.851,34.426 266.176,34.426 266.176,31.196 259.576,31.196 259.576,34.426 258.751,34.426 258.751,37.076 259.576,37.076 259.576,43.346 261.301,43.346 261.301,44.546 264.451,44.546 264.451,43.346 266.176,43.346 266.176,38.876 267.851,38.876 267.851,39.626 267.051,39.626 267.051,42.576 267.851,42.576 267.851,43.576 281.701,43.576 281.701,42.576 282.501,42.576 282.501,39.626 281.701,39.626 281.701,38.876 283.376,38.876 283.376,43.346 285.101,43.346 285.101,44.546 288.251,44.546 288.251,43.346 289.976,43.346 289.976,37.076 290.801,37.076 290.801,34.426 289.976,34.426 289.976,31.196 283.376,31.196 283.376,34.426 281.701,34.426 281.701,33.676 282.501,33.676 282.501,30.726 281.701,30.726 281.701,29.726" style="fill:none;stroke-width:0.050000mm;stroke:black"/>
<polygon points="239.276,29.726 239.276,30.726 238.476,30.726 238.476,33.676 239.276,33.676 239.276,39.626 238.476,39.626 238.476,42.576 239.276,42.576 239.276,43.576 253.126,43.576 253.126,42.576 253.926,42.576 253.926,39.626 253.126,39.626 253.126,33.676 253.926,33.676 253.926,30.726 253.126,30.726 253.126,29.726" style="fill:none;stroke-width:0.050000mm;stroke:black"/>
<polygon points="220.226,29.726 220.226,30.726 219.426,30.726 219.426,33.676 220.226,33.676 220.226,39.626 219.426,39.626 219.426,42.576 220.226,42.576 220.226,43.576 234.076,43.576 234.076,42.576 234.876,42.576 234.876,39.626 234.076,39.626 234.076,33.676 234.876,33.676 234.876,30.726 234.076,30.726 234.076,29.726" style="fill:none;stroke-width:0.050000mm;stroke:black"/>
<polygon points="201.176,29.726 201.176,30.726 200.376,30.726 200.376,33.676 201.176,33.676 201.176,39.626 200.376,39.626 200.376,42.576 201.176,42.576 201.176,43.576 215.026,43.576 215.026,42.576 215.826,42.576 215.826,39.626 215.026,39.626 215.026,33.676 215.826,33.676 215.826,30.726 215.026,30.726 215.026,29.726" style="fill:none;stroke-width:0.050000mm;stroke:black"/>
<polygon points="182.126,29.726 182.126,30.726 181.326,30.726 181.326,33.676 182.126,33.676 182.126,39.626 181.326,39.626 181.326,42.576 182.126,42.576 182.126,43.576 195.976,43.576 195.976,42.576 196.776,42.576 196.776,39.626 195.976,39.626 195.976,33.676 196.776,33.676 196.776,30.726 195.976,30.726 195.976,29.726" style="fill:none;stroke-width:0.050000mm;stroke:black"/>
<polygon points="163.076,29.726 163.076,30.726 162.276,30.726 162.276,33.676 163.076,33.676 163.076,39.626 162.276,39.626 162.276,42.576 163.076,42.576 163.076,43.576 176.926,43.576 176.926,42.576 177.726,42.576 177.726,39.626 176.926,39.626 176.926,33.676 177.726,33.676 177.726,30.726 176.926,30.726 176.926,29.726" style="fill:none;stroke-width:0.050000mm;stroke:black"/>
<polygon points="144.026,29.726 144.026,30.726 143.226,30.726 143.226,33.676 144.026,33.676 144.026,39.626 143.226,39.626 143.226,42.576 144.026,42.576 144.026,43.576 157.876,43.576 157.876,42.576 158.676,42.576 158.676,39.626 157.876,39.626 157.876,33.676 158.676,33.676 158.676,30.726 157.876,30.726 157.876,29.726" style="fill:none;stroke-width:0.050000mm;stroke:black"/>
<polygon points="124.976,29.726 124.976,30.726 124.176,30.726 124.176,33.676 124.976,33.676 124.976,39.626 124.176,39.626 124.176,42.576 124.976,42.576 124.976,43.576 138.826,43.576 138.826,42.576 139.626,42.576 139.626,39.626 138.826,39.626 138.826,33.676 139.626,33.676 139.626,30.726 138.826,30.726 138.826,29.726" style="fill:none;stroke-width:0.050000mm;stroke:black"/>
<polygon points="105.926,29.726 105.926,30.726 105.126,30.726 105.126,33.676 105.926,33.676 105.926,39.626 105.126,39.626 105.126,42.576 105.926,42.576 105.926,43.576 119.775,43.576 119.775,42.576 120.575,42.576 120.575,39.626 119.775,39.626 119.775,33.676 120.575,33.676 120.575,30.726 119.775,30.726 119.775,29.726" style="fill:none;stroke-width:0.050000mm;stroke:black"/>
<polygon points="86.876,29.726 86.876,30.726 86.076,30.726 86.076,33.676 86.876,33.676 86.876,39.626 86.076,39.626 86.076,42.576 86.876,42.576 86.876,43.576 100.726,43.576 100.726,42.576 101.525,42.576 101.525,39.626 100.726,39.626 100.726,33.676 101.525,33.676 101.525,30.726 100.726,30.726 100.726,29.726" style="fill:none;stroke-width:0.050000mm;stroke:black"/>
<polygon points="67.826,29.726 67.826,30.726 67.026,30.726 67.026,33.676 67.826,33.676 67.826,39.626 67.026,39.626 67.026,42.576 67.826,42.576 67.826,43.576 81.676,43.576 81.676,42.576 82.476,42.576 82.476,39.626 81.676,39.626 81.676,33.676 82.476,33.676 82.476,30.726 81.676,30.726 81.676,29.726" style="fill:none;stroke-width:0.050000mm;stroke:black"/>
<polygon points="48.776,29.726 48.776,30.726 47.976,30.726 47.976,33.676 48.776,33.676 48.776,39.626 47.976,39.626 47.976,42.576 48.776,42.576 48.776,43.576 62.626,43.576 62.626,42.576 63.426,42.576 63.426,39.626 62.626,39.626 62.626,33.676 63.426,33.676 63.426,30.726 62.626,30.726 62.626,29.726" style="fill:none;stroke-width:0.050000mm;stroke:black"/>
<polygon points="29.726,29.726 29.726,30.726 28.926,30.726 28.926,33.676 29.726,33.676 29.726,39.626 28.926,39.626 28.926,42.576 29.726,42.576 29.726,43.576 43.576,43.576 43.576,42.576 44.376,42.576 44.376,39.626 43.576,39.626 43.576,33.676 44.376,33.676 44.376,30.726 43.576,30.726 43.576,29.726" style="fill:none;stroke-width:0.050000mm;stroke:black"/>
<polygon points="10.676,29.726 10.676,30.726 9.876,30.726 9.876,33.676 10.676,33.676 10.676,39.626 9.876,39.626 9.876,42.576 10.676,42.576 10.676,43.576 24.526,43.576 24.526,42.576 25.326,42.576 25.326,39.626 24.526,39.626 24.526,33.676 25.326,33.676 25.326,30.726 24.526,30.726 24.526,29.726" style="fill:none;stroke-width:0.050000mm;stroke:black"/>
<polygon points="296.426,10.676 296.426,11.676 295.626,11.676 295.626,14.626 296.426,14.626 296.426,20.576 295.626,20.576 295.626,23.526 296.426,23.526 296.426,24.526 310.276,24.526 310.276,23.526 311.076,23.526 311.076,20.576 310.276,20.576 310.276,14.626 311.076,14.626 311.076,11.676 310.276,11.676 310.276,10.676" style="fill:none;stroke-width:0.050000mm;stroke:black"/>
<polygon points="239.276,10.676 239.276,11.676 238.476,11.676 238.476,14.626 239.276,14.626 239.276,20.576 238.476,20.576 238.476,23.526 239.276,23.526 239.276,24.526 253.126,24.526 253.126,23.526 253.926,23.526 253.926,20.576 253.126,20.576 253.126,14.626 253.926,14.626 253.926,11.676 253.126,11.676 253.126,10.676" style="fill:none;stroke-width:0.050000mm;stroke:black"/>
<polygon points="220.226,10.676 220.226,11.676 219.426,11.676 219.426,14.626 220.226,14.626 220.226,20.576 219.426,20.576 219.426,23.526 220.226,23.526 220.226,24.526 234.076,24.526 234.076,23.526 234.876,23.526 234.876,20.576 234.076,20.576 234.076,14.626 234.876,14.626 234.876,11.676 234.076,11.676 234.076,10.676" style="fill:none;stroke-width:0.050000mm;stroke:black"/>
<polygon points="201.176,10.676 201.176,11.676 200.376,11.676 200.376,14.626 201.176,14.626 201.176,20.576 200.376,20.576 200.376,23.526 201.176,23.526 201.176,24.526 215.026,24.526 215.026,23.526 215.826,23.526 215.826,20.576 215.026,20.576 215.026,14.626 215.826,14.626 215.826,11.676 215.026,11.676 215.026,10.676" style="fill:none;stroke-width:0.050000mm;stroke:black"/>
<polygon points="182.126,10.676 182.126,11.676 181.326,11.676 181.326,14.626 182.126,14.626 182.126,20.576 181.326,20.576 181.326,23.526 182.126,23.526 182.126,24.526 195.976,24.526 195.976,23.526 196.776,23.526 196.776,20.576 195.976,20.576 195.976,14.626 196.776,14.626 196.776,11.676 195.976,11.676 195.976,10.676" style="fill:none;stroke-width:0.050000mm;stroke:black"/>
<polygon points="163.076,10.676 163.076,11.676 162.276,11.676 162.276,14.626 163.076,14.626 163.076,20.576 162.276,20.576 162.276,23.526 163.076,23.526 163.076,24.526 176.926,24.526 176.926,23.526 177.726,23.526 177.726,20.576 176.926,20.576 176.926,14.626 177.726,14.626 177.726,11.676 176.926,11.676 176.926,10.676" style="fill:none;stroke-width:0.050000mm;stroke:black"/>
<polygon points="144.026,10.676 144.026,11.676 143.226,11.676 143.226,14.626 144.026,14.626 144.026,20.576 143.226,20.576 143.226,23.526 144.026,23.526 144.026,24.526 157.876,24.526 157.876,23.526 158.676,23.526 158.676,20.576 157.876,20.576 157.876,14.626 158.676,14.626 158.676,11.676 157.876,11.676 157.876,10.676" style="fill:none;stroke-width:0.050000mm;stroke:black"/>
<polygon points="124.976,10.676 124.976,11.676 124.176,11.676 124.176,14.626 124.976,14.626 124.976,20.576 124.176,20.576 124.176,23.526 124.976,23.526 124.976,24.526 138.826,24.526 138.826,23.526 139.626,23.526 139.626,20.576 138.826,20.576 138.826,14.626 139.626,14.626 139.626,11.676 138.826,11.676 138.826,10.676" style="fill:none;stroke-width:0.050000mm;stroke:black"/>
<polygon points="105.926,10.676 105.926,11.676 105.126,11.676 105.126,14.626 105.926,14.626 105.926,20.576 105.126,20.576 105.126,23.526 105.926,23.526 105.926,24.526 119.775,24.526 119.775,23.526 120.575,23.526 120.575,20.576 119.775,20.576 119.775,14.626 120.575,14.626 120.575,11.676 119.775,11.676 119.775,10.676" style="fill:none;stroke-width:0.050000mm;stroke:black"/>
<polygon points="86.876,10.676 86.876,11.676 86.076,11.676 86.076,14.626 86.876,14.626 86.876,20.576 86.076,20.576 86.076,23.526 86.876,23.526 86.876,24.526 100.726,24.526 100.726,23.526 101.525,23.526 101.525,20.576 100.726,20.576 100.726,14.626 101.525,14.626 101.525,11.676 100.726,11.676 100.726,10.676" style="fill:none;stroke-width:0.050000mm;stroke:black"/>
<polygon points="67.826,10.676 67.826,11.676 67.026,11.676 67.026,14.626 67.826,14.626 67.826,20.576 67.026,20.576 67.026,23.526 67.826,23.526 67.826,24.526 81.676,24.526 81.676,23.526 82.476,23.526 82.476,20.576 81.676,20.576 81.676,14.626 82.476,14.626 82.476,11.676 81.676,11.676 81.676,10.676" style="fill:none;stroke-width:0.050000mm;stroke:black"/>
<polygon points="48.776,10.676 48.776,11.676 47.976,11.676 47.976,14.626 48.776,14.626 48.776,20.576 47.976,20.576 47.976,23.526 48.776,23.526 48.776,24.526 62.626,24.526 62.626,23.526 63.426,23.526 63.426,20.576 62.626,20.576 62.626,14.626 63.426,14.626 63.426,11.676 62.626,11.676 62.626,10.676" style="fill:none;stroke-width:0.050000mm;stroke:black"/>
<polygon points="29.726,10.676 29.726,11.676 28.926,11.676 28.926,14.626 29.726,14.626 29.726,20.576 28.926,20.576 28.926,23.526 29.726,23.526 29.726,24.526 43.576,24.526 43.576,23.526 44.376,23.526 44.376,20.576 43.576,20.576 43.576,14.626 44.376,14.626 44.376,11.676 43.576,11.676 43.576,10.676" style="fill:none;stroke-width:0.050000mm;stroke:black"/>
<polygon points="10.676,10.676 10.676,11.676 9.876,11.676 9.876,14.626 10.676,14.626 10.676,20.576 9.876,20.576 9.876,23.526 10.676,23.526 10.676,24.526 24.526,24.526 24.526,23.526 25.326,23.526 25.326,20.576 24.526,20.576 24.526,14.626 25.326,14.626 25.326,11.676 24.526,11.676 24.526,10.676" style="fill:none;stroke-width:0.050000mm;stroke:black"/>
</svg>
