<?xml version="1.0"?>
<!-- Generated by SVGo -->
<svg width="320.802mm" height="130.302mm"
     viewBox="0.000 0.000 320.802 130.302"
     xmlns="http://www.w3.org/2000/svg" 
     xmlns:xlink="http://www.w3.org/1999/xlink">
<polygon points="314.802,5.001 314.880,5.004 314.958,5.013 315.035,5.028 315.111,5.049 315.184,5.077 315.255,5.109 315.324,5.148 315.389,5.191 315.451,5.240 315.509,5.293 315.562,5.351 315.611,5.413 315.654,5.478 315.693,5.547 315.725,5.618 315.753,5.691 315.774,5.767 315.789,5.844 315.798,5.922 315.802,6.001 315.802,124.301 315.798,124.380 315.789,124.458 315.774,124.535 315.753,124.611 315.725,124.684 315.693,124.755 315.654,124.824 315.611,124.889 315.562,124.951 315.509,125.009 315.451,125.062 315.389,125.111 315.324,125.154 315.255,125.193 315.184,125.225 315.111,125.253 315.035,125.274 314.958,125.289 314.880,125.298 314.802,125.302 6.001,125.301 5.922,125.298 5.844,125.289 5.767,125.274 5.691,125.253 5.618,125.225 5.547,125.193 5.478,125.154 5.413,125.111 5.351,125.062 5.293,125.009 5.240,124.951 5.191,124.889 5.148,124.824 5.109,124.755 5.077,124.684 5.049,124.611 5.028,124.535 5.013,124.458 5.004,124.380 5.000,124.301 5.001,6.001 5.004,5.922 5.013,5.844 5.028,5.767 5.049,5.691 5.077,5.618 5.109,5.547 5.148,5.478 5.191,5.413 5.240,5.351 5.293,5.293 5.351,5.240 5.413,5.191 5.478,5.148 5.547,5.109 5.618,5.077 5.691,5.049 5.767,5.028 5.844,5.013 5.922,5.004 6.001,5.000" style="fill:none;stroke-width:0.050000mm;stroke:black"/>
<polygon points="131.969,105.775 131.969,106.775 131.169,106.775 131.169,109.875 131.969,109.875 131.969,110.476 92.344,110.476 92.344,107.245 85.594,107.245 85.594,110.476 84.769,110.476 84.769,113.275 85.594,113.275 85.594,119.545 87.319,119.545 87.319,120.745 90.619,120.745 90.619,119.545 92.344,119.545 92.344,115.075 131.969,115.075 131.969,115.676 131.169,115.676 131.169,118.775 131.969,118.775 131.969,119.775 145.969,119.775 145.969,118.775 146.769,118.775 146.769,115.676 145.969,115.676 145.969,115.075 185.594,115.075 185.594,119.545 187.319,119.545 187.319,120.745 190.619,120.745 190.619,119.545 192.344,119.545 192.344,113.275 193.169,113.275 193.169,110.476 192.344,110.476 192.344,107.245 185.594,107.245 185.594,110.476 145.969,110.476 145.969,109.875 146.769,109.875 146.769,106.775 145.969,106.775 145.969,105.775" style="fill:none;stroke-width:0.050000mm;stroke:black"/>
<polygon points="296.276,105.775 296.276,106.775 295.476,106.775 295.476,109.875 296.276,109.875 296.276,115.676 295.476,115.676 295.476,118.775 296.276,118.775 296.276,119.775 310.276,119.775 310.276,118.775 311.076,118.775 311.076,115.676 310.276,115.676 310.276,109.875 311.076,109.875 311.076,106.775 310.276,106.775 310.276,105.775" style="fill:none;stroke-width:0.050000mm;stroke:black"/>
<polygon points="277.226,105.775 277.226,106.775 276.426,106.775 276.426,109.875 277.226,109.875 277.226,115.676 276.426,115.676 276.426,118.775 277.226,118.775 277.226,119.775 291.226,119.775 291.226,118.775 292.026,118.775 292.026,115.676 291.226,115.676 291.226,109.875 292.026,109.875 292.026,106.775 291.226,106.775 291.226,105.775" style="fill:none;stroke-width:0.050000mm;stroke:black"/>
<polygon points="258.176,105.775 258.176,106.775 257.376,106.775 257.376,109.875 258.176,109.875 258.176,115.676 257.376,115.676 257.376,118.775 258.176,118.775 258.176,119.775 272.176,119.775 272.176,118.775 272.976,118.775 272.976,115.676 272.176,115.676 272.176,109.875 272.976,109.875 272.976,106.775 272.176,106.775 272.176,105.775" style="fill:none;stroke-width:0.050000mm;stroke:black"/>
<polygon points="220.076,105.775 220.076,106.775 219.276,106.775 219.276,109.875 220.076,109.875 220.076,115.676 219.276,115.676 219.276,118.775 220.076,118.775 220.076,119.775 234.076,119.775 234.076,118.775 234.876,118.775 234.876,115.676 234.076,115.676 234.076,109.875 234.876,109.875 234.876,106.775 234.076,106.775 234.076,105.775" style="fill:none;stroke-width:0.050000mm;stroke:black"/>
<polygon points="201.026,105.775 201.026,106.775 200.226,106.775 200.226,109.875 201.026,109.875 201.026,115.676 200.226,115.676 200.226,118.775 201.026,118.775 201.026,119.775 215.026,119.775 215.026,118.775 215.826,118.775 215.826,115.676 215.026,115.676 215.026,109.875 215.826,109.875 215.826,106.775 215.026,106.775 215.026,105.775" style="fill:none;stroke-width:0.050000mm;stroke:black"/>
<polygon points="60.532,105.775 60.532,106.775 59.732,106.775 59.732,109.875 60.532,109.875 60.532,115.676 59.732,115.676 59.732,118.775 60.532,118.775 60.532,119.775 74.532,119.775 74.532,118.775 75.332,118.775 75.332,115.676 74.532,115.676 74.532,109.875 75.332,109.875 75.332,106.775 74.532,106.775 74.532,105.775" style="fill:none;stroke-width:0.050000mm;stroke:black"/>
<polygon points="36.719,105.775 36.719,106.775 35.919,106.775 35.919,109.875 36.719,109.875 36.719,115.676 35.919,115.676 35.919,118.775 36.719,118.775 36.719,119.775 50.719,119.775 50.719,118.775 51.519,118.775 51.519,115.676 50.719,115.676 50.719,109.875 51.519,109.875 51.519,106.775 50.719,106.775 50.719,105.775" style="fill:none;stroke-width:0.050000mm;stroke:black"/>
<polygon points="12.907,105.775 12.907,106.775 12.107,106.775 12.107,109.875 12.907,109.875 12.907,115.676 12.107,115.676 12.107,118.775 12.907,118.775 12.907,119.775 26.907,119.775 26.907,118.775 27.707,118.775 27.707,115.676 26.907,115.676 26.907,109.875 27.707,109.875 27.707,106.775 26.907,106.775 26.907,105.775" style="fill:none;stroke-width:0.050000mm;stroke:black"/>
<polygon points="22.432,86.726 22.432,87.726 21.632,87.726 21.632,90.825 22.432,90.825 22.432,91.426 20.907,91.426 20.907,88.196 14.157,88.196 14.157,91.426 13.332,91.426 13.332,94.226 14.157,94.226 14.157,100.495 15.882,100.495 15.882,101.696 19.182,101.696 19.182,100.495 20.907,100.495 20.907,96.025 22.432,96.025 22.432,96.626 21.632,96.626 21.632,99.726 22.432,99.726 22.432,100.726 36.432,100.726 36.432,99.726 37.232,99.726 37.232,96.626 36.432,96.626 36.432,96.025 37.957,96.025 37.957,100.495 39.682,100.495 39.682,101.696 42.982,101.696 42.982,100.495 44.707,100.495 44.707,94.226 45.532,94.226 45.532,91.426 44.707,91.426 44.707,88.196 37.957,88.196 37.957,91.426 36.432,91.426 36.432,90.825 37.232,90.825 37.232,87.726 36.432,87.726 36.432,86.726" style="fill:none;stroke-width:0.050000mm;stroke:black"/>
<polygon points="277.226,86.726 277.226,87.726 276.426,87.726 276.426,90.825 277.226,90.825 277.226,96.626 276.426,96.626 276.426,99.726 277.226,99.726 277.226,100.726 291.226,100.726 291.226,99.726 292.026,99.726 292.026,96.626 291.226,96.626 291.226,90.825 292.026,90.825 292.026,87.726 291.226,87.726 291.226,86.726" style="fill:none;stroke-width:0.050000mm;stroke:black"/>
<polygon points="224.838,86.726 224.838,87.726 224.038,87.726 224.038,90.825 224.838,90.825 224.838,96.626 224.038,96.626 224.038,99.726 224.838,99.726 224.838,100.726 238.838,100.726 238.838,99.726 239.638,99.726 239.638,96.626 238.838,96.626 238.838,90.825 239.638,90.825 239.638,87.726 238.838,87.726 238.838,86.726" style="fill:none;stroke-width:0.050000mm;stroke:black"/>
<polygon points="205.788,86.726 205.788,87.726 204.988,87.726 204.988,90.825 205.788,90.825 205.788,96.626 204.988,96.626 204.988,99.726 205.788,99.726 205.788,100.726 219.788,100.726 219.788,99.726 220.588,99.726 220.588,96.626 219.788,96.626 219.788,90.825 220.588,90.825 220.588,87.726 219.788,87.726 219.788,86.726" style="fill:none;stroke-width:0.050000mm;stroke:black"/>
<polygon points="186.738,86.726 186.738,87.726 185.938,87.726 185.938,90.825 186.738,90.825 186.738,96.626 185.938,96.626 185.938,99.726 186.738,99.726 186.738,100.726 200.738,100.726 200.738,99.726 201.538,99.726 201.538,96.626 200.738,96.626 200.738,90.825 201.538,90.825 201.538,87.726 200.738,87.726 200.738,86.726" style="fill:none;stroke-width:0.050000mm;stroke:black"/>
<polygon points="167.688,86.726 167.688,87.726 166.888,87.726 166.888,90.825 167.688,90.825 167.688,96.626 166.888,96.626 166.888,99.726 167.688,99.726 167.688,100.726 181.688,100.726 181.688,99.726 182.488,99.726 182.488,96.626 181.688,96.626 181.688,90.825 182.488,90.825 182.488,87.726 181.688,87.726 181.688,86.726" style="fill:none;stroke-width:0.050000mm;stroke:black"/>
<polygon points="148.638,86.726 148.638,87.726 147.838,87.726 147.838,90.825 148.638,90.825 148.638,96.626 147.838,96.626 147.838,99.726 148.638,99.726 148.638,100.726 162.638,100.726 162.638,99.726 163.438,99.726 163.438,96.626 162.638,96.626 162.638,90.825 163.438,90.825 163.438,87.726 162.638,87.726 162.638,86.726" style="fill:none;stroke-width:0.050000mm;stroke:black"/>
<polygon points="129.587,86.726 129.587,87.726 128.788,87.726 128.788,90.825 129.587,90.825 129.587,96.626 128.788,96.626 128.788,99.726 129.587,99.726 129.587,100.726 143.588,100.726 143.588,99.726 144.388,99.726 144.388,96.626 143.588,96.626 143.588,90.825 144.388,90.825 144.388,87.726 143.588,87.726 143.588,86.726" style="fill:none;stroke-width:0.050000mm;stroke:black"/>
<polygon points="110.538,86.726 110.538,87.726 109.738,87.726 109.738,90.825 110.538,90.825 110.538,96.626 109.738,96.626 109.738,99.726 110.538,99.726 110.538,100.726 124.538,100.726 124.538,99.726 125.338,99.726 125.338,96.626 124.538,96.626 124.538,90.825 125.338,90.825 125.338,87.726 124.538,87.726 124.538,86.726" style="fill:none;stroke-width:0.050000mm;stroke:black"/>
<polygon points="91.488,86.726 91.488,87.726 90.688,87.726 90.688,90.825 91.488,90.825 91.488,96.626 90.688,96.626 90.688,99.726 91.488,99.726 91.488,100.726 105.488,100.726 105.488,99.726 106.288,99.726 106.288,96.626 105.488,96.626 105.488,90.825 106.288,90.825 106.288,87.726 105.488,87.726 105.488,86.726" style="fill:none;stroke-width:0.050000mm;stroke:black"/>
<polygon points="72.438,86.726 72.438,87.726 71.638,87.726 71.638,90.825 72.438,90.825 72.438,96.626 71.638,96.626 71.638,99.726 72.438,99.726 72.438,100.726 86.438,100.726 86.438,99.726 87.238,99.726 87.238,96.626 86.438,96.626 86.438,90.825 87.238,90.825 87.238,87.726 86.438,87.726 86.438,86.726" style="fill:none;stroke-width:0.050000mm;stroke:black"/>
<polygon points="53.388,86.726 53.388,87.726 52.588,87.726 52.588,90.825 53.388,90.825 53.388,96.626 52.588,96.626 52.588,99.726 53.388,99.726 53.388,100.726 67.388,100.726 67.388,99.726 68.188,99.726 68.188,96.626 67.388,96.626 67.388,90.825 68.188,90.825 68.188,87.726 67.388,87.726 67.388,86.726" style="fill:none;stroke-width:0.050000mm;stroke:black"/>
<polygon points="265.319,67.676 265.319,68.676 264.519,68.676 264.519,71.775 265.319,71.775 265.319,72.376 263.794,72.376 263.794,69.146 257.044,69.146 257.044,72.376 256.219,72.376 256.219,75.176 257.044,75.176 257.044,81.446 258.768,81.446 258.768,82.646 262.068,82.646 262.068,81.446 263.794,81.446 263.794,76.976 265.319,76.976 265.319,77.576 264.519,77.576 264.519,80.676 265.319,80.676 265.319,81.676 279.319,81.676 279.319,80.676 280.119,80.676 280.119,77.576 279.319,77.576 279.319,76.976 280.844,76.976 280.844,81.446 282.569,81.446 282.569,82.646 285.869,82.646 285.869,81.446 287.594,81.446 287.594,75.176 288.419,75.176 288.419,72.376 287.594,72.376 287.594,69.146 280.844,69.146 280.844,72.376 279.319,72.376 279.319,71.775 280.119,71.775 280.119,68.676 279.319,68.676 279.319,67.676" style="fill:none;stroke-width:0.050000mm;stroke:black"/>
<polygon points="234.363,67.676 234.363,68.676 233.563,68.676 233.563,71.775 234.363,71.775 234.363,77.576 233.563,77.576 233.563,80.676 234.363,80.676 234.363,81.676 248.363,81.676 248.363,80.676 249.163,80.676 249.163,77.576 248.363,77.576 248.363,71.775 249.163,71.775 249.163,68.676 248.363,68.676 248.363,67.676" style="fill:none;stroke-width:0.050000mm;stroke:black"/>
<polygon points="215.313,67.676 215.313,68.676 214.513,68.676 214.513,71.775 215.313,71.775 215.313,77.576 214.513,77.576 214.513,80.676 215.313,80.676 215.313,81.676 229.313,81.676 229.313,80.676 230.113,80.676 230.113,77.576 229.313,77.576 229.313,71.775 230.113,71.775 230.113,68.676 229.313,68.676 229.313,67.676" style="fill:none;stroke-width:0.050000mm;stroke:black"/>
<polygon points="196.263,67.676 196.263,68.676 195.463,68.676 195.463,71.775 196.263,71.775 196.263,77.576 195.463,77.576 195.463,80.676 196.263,80.676 196.263,81.676 210.263,81.676 210.263,80.676 211.063,80.676 211.063,77.576 210.263,77.576 210.263,71.775 211.063,71.775 211.063,68.676 210.263,68.676 210.263,67.676" style="fill:none;stroke-width:0.050000mm;stroke:black"/>
<polygon points="177.213,67.676 177.213,68.676 176.413,68.676 176.413,71.775 177.213,71.775 177.213,77.576 176.413,77.576 176.413,80.676 177.213,80.676 177.213,81.676 191.213,81.676 191.213,80.676 192.013,80.676 192.013,77.576 191.213,77.576 191.213,71.775 192.013,71.775 192.013,68.676 191.213,68.676 191.213,67.676" style="fill:none;stroke-width:0.050000mm;stroke:black"/>
<polygon points="158.163,67.676 158.163,68.676 157.363,68.676 157.363,71.775 158.163,71.775 158.163,77.576 157.363,77.576 157.363,80.676 158.163,80.676 158.163,81.676 172.163,81.676 172.163,80.676 172.963,80.676 172.963,77.576 172.163,77.576 172.163,71.775 172.963,71.775 172.963,68.676 172.163,68.676 172.163,67.676" style="fill:none;stroke-width:0.050000mm;stroke:black"/>
<polygon points="139.113,67.676 139.113,68.676 138.313,68.676 138.313,71.775 139.113,71.775 139.113,77.576 138.313,77.576 138.313,80.676 139.113,80.676 139.113,81.676 153.113,81.676 153.113,80.676 153.913,80.676 153.913,77.576 153.113,77.576 153.113,71.775 153.913,71.775 153.913,68.676 153.113,68.676 153.113,67.676" style="fill:none;stroke-width:0.050000mm;stroke:black"/>
<polygon points="120.063,67.676 120.063,68.676 119.263,68.676 119.263,71.775 120.063,71.775 120.063,77.576 119.263,77.576 119.263,80.676 120.063,80.676 120.063,81.676 134.063,81.676 134.063,80.676 134.863,80.676 134.863,77.576 134.063,77.576 134.063,71.775 134.863,71.775 134.863,68.676 134.063,68.676 134.063,67.676" style="fill:none;stroke-width:0.050000mm;stroke:black"/>
<polygon points="101.013,67.676 101.013,68.676 100.213,68.676 100.213,71.775 101.013,71.775 101.013,77.576 100.213,77.576 100.213,80.676 101.013,80.676 101.013,81.676 115.013,81.676 115.013,80.676 115.813,80.676 115.813,77.576 115.013,77.576 115.013,71.775 115.813,71.775 115.813,68.676 115.013,68.676 115.013,67.676" style="fill:none;stroke-width:0.050000mm;stroke:black"/>
<polygon points="81.963,67.676 81.963,68.676 81.163,68.676 81.163,71.775 81.963,71.775 81.963,77.576 81.163,77.576 81.163,80.676 81.963,80.676 81.963,81.676 95.963,81.676 95.963,80.676 96.763,80.676 96.763,77.576 95.963,77.576 95.963,71.775 96.763,71.775 96.763,68.676 95.963,68.676 95.963,67.676" style="fill:none;stroke-width:0.050000mm;stroke:black"/>
<polygon points="62.913,67.676 62.913,68.676 62.113,68.676 62.113,71.775 62.913,71.775 62.913,77.576 62.113,77.576 62.113,80.676 62.913,80.676 62.913,81.676 76.913,81.676 76.913,80.676 77.713,80.676 77.713,77.576 76.913,77.576 76.913,71.775 77.713,71.775 77.713,68.676 76.913,68.676 76.913,67.676" style="fill:none;stroke-width:0.050000mm;stroke:black"/>
<polygon points="43.863,67.676 43.863,68.676 43.063,68.676 43.063,71.775 43.863,71.775 43.863,77.576 43.063,77.576 43.063,80.676 43.863,80.676 43.863,81.676 57.863,81.676 57.863,80.676 58.663,80.676 58.663,77.576 57.863,77.576 57.863,71.775 58.663,71.775 58.663,68.676 57.863,68.676 57.863,67.676" style="fill:none;stroke-width:0.050000mm;stroke:black"/>
<polygon points="17.669,67.676 17.669,68.676 16.869,68.676 16.869,71.775 17.669,71.775 17.669,77.576 16.869,77.576 16.869,80.676 17.669,80.676 17.669,81.676 31.669,81.676 31.669,80.676 32.469,80.676 32.469,77.576 31.669,77.576 31.669,71.775 32.469,71.775 32.469,68.676 31.669,68.676 31.669,67.676" style="fill:none;stroke-width:0.050000mm;stroke:black"/>
<polygon points="272.463,48.626 272.463,49.626 271.663,49.626 271.663,52.726 272.463,52.726 272.463,58.526 271.663,58.526 271.663,61.626 272.463,61.626 272.463,62.626 286.463,62.626 286.463,61.626 287.263,61.626 287.263,58.526 286.463,58.526 286.463,52.726 287.263,52.726 287.263,49.626 286.463,49.626 286.463,48.626" style="fill:none;stroke-width:0.050000mm;stroke:black"/>
<polygon points="248.651,48.626 248.651,49.626 247.851,49.626 247.851,52.726 248.651,52.726 248.651,58.526 247.851,58.526 247.851,61.626 248.651,61.626 248.651,62.626 262.651,62.626 262.651,61.626 263.451,61.626 263.451,58.526 262.651,58.526 262.651,52.726 263.451,52.726 263.451,49.626 262.651,49.626 262.651,48.626" style="fill:none;stroke-width:0.050000mm;stroke:black"/>
<polygon points="229.601,48.626 229.601,49.626 228.801,49.626 228.801,52.726 229.601,52.726 229.601,58.526 228.801,58.526 228.801,61.626 229.601,61.626 229.601,62.626 243.601,62.626 243.601,61.626 244.401,61.626 244.401,58.526 243.601,58.526 243.601,52.726 244.401,52.726 244.401,49.626 243.601,49.626 243.601,48.626" style="fill:none;stroke-width:0.050000mm;stroke:black"/>
<polygon points="210.551,48.626 210.551,49.626 209.751,49.626 209.751,52.726 210.551,52.726 210.551,58.526 209.751,58.526 209.751,61.626 210.551,61.626 210.551,62.626 224.551,62.626 224.551,61.626 225.351,61.626 225.351,58.526 224.551,58.526 224.551,52.726 225.351,52.726 225.351,49.626 224.551,49.626 224.551,48.626" style="fill:none;stroke-width:0.050000mm;stroke:black"/>
<polygon points="191.501,48.626 191.501,49.626 190.701,49.626 190.701,52.726 191.501,52.726 191.501,58.526 190.701,58.526 190.701,61.626 191.501,61.626 191.501,62.626 205.501,62.626 205.501,61.626 206.301,61.626 206.301,58.526 205.501,58.526 205.501,52.726 206.301,52.726 206.301,49.626 205.501,49.626 205.501,48.626" style="fill:none;stroke-width:0.050000mm;stroke:black"/>
<polygon points="172.451,48.626 172.451,49.626 171.651,49.626 171.651,52.726 172.451,52.726 172.451,58.526 171.651,58.526 171.651,61.626 172.451,61.626 172.451,62.626 186.451,62.626 186.451,61.626 187.251,61.626 187.251,58.526 186.451,58.526 186.451,52.726 187.251,52.726 187.251,49.626 186.451,49.626 186.451,48.626" style="fill:none;stroke-width:0.050000mm;stroke:black"/>
<polygon points="153.401,48.626 153.401,49.626 152.601,49.626 152.601,52.726 153.401,52.726 153.401,58.526 152.601,58.526 152.601,61.626 153.401,61.626 153.401,62.626 167.401,62.626 167.401,61.626 168.201,61.626 168.201,58.526 167.401,58.526 167.401,52.726 168.201,52.726 168.201,49.626 167.401,49.626 167.401,48.626" style="fill:none;stroke-width:0.050000mm;stroke:black"/>
<polygon points="134.351,48.626 134.351,49.626 133.550,49.626 133.550,52.726 134.351,52.726 134.351,58.526 133.550,58.526 133.550,61.626 134.351,61.626 134.351,62.626 148.351,62.626 148.351,61.626 149.151,61.626 149.151,58.526 148.351,58.526 148.351,52.726 149.151,52.726 149.151,49.626 148.351,49.626 148.351,48.626" style="fill:none;stroke-width:0.050000mm;stroke:black"/>
<polygon points="115.301,48.626 115.301,49.626 114.501,49.626 114.501,52.726 115.301,52.726 115.301,58.526 114.501,58.526 114.501,61.626 115.301,61.626 115.301,62.626 129.301,62.626 129.301,61.626 130.101,61.626 130.101,58.526 129.301,58.526 129.301,52.726 130.101,52.726 130.101,49.626 129.301,49.626 129.301,48.626" style="fill:none;stroke-width:0.050000mm;stroke:black"/>
<polygon points="96.251,48.626 96.251,49.626 95.451,49.626 95.451,52.726 96.251,52.726 96.251,58.526 95.451,58.526 95.451,61.626 96.251,61.626 96.251,62.626 110.251,62.626 110.251,61.626 111.051,61.626 111.051,58.526 110.251,58.526 110.251,52.726 111.051,52.726 111.051,49.626 110.251,49.626 110.251,48.626" style="fill:none;stroke-width:0.050000mm;stroke:black"/>
<polygon points="77.201,48.626 77.201,49.626 76.401,49.626 76.401,52.726 77.201,52.726 77.201,58.526 76.401,58.526 76.401,61.626 77.201,61.626 77.201,62.626 91.201,62.626 91.201,61.626 92.001,61.626 92.001,58.526 91.201,58.526 91.201,52.726 92.001,52.726 92.001,49.626 91.201,49.626 91.201,48.626" style="fill:none;stroke-width:0.050000mm;stroke:black"/>
<polygon points="58.151,48.626 58.151,49.626 57.351,49.626 57.351,52.726 58.151,52.726 58.151,58.526 57.351,58.526 57.351,61.626 58.151,61.626 58.151,62.626 72.151,62.626 72.151,61.626 72.951,61.626 72.951,58.526 72.151,58.526 72.151,52.726 72.951,52.726 72.951,49.626 72.151,49.626 72.151,48.626" style="fill:none;stroke-width:0.050000mm;stroke:black"/>
<polygon points="39.101,48.626 39.101,49.626 38.301,49.626 38.301,52.726 39.101,52.726 39.101,58.526 38.301,58.526 38.301,61.626 39.101,61.626 39.101,62.626 53.101,62.626 53.101,61.626 53.901,61.626 53.901,58.526 53.101,58.526 53.101,52.726 53.901,52.726 53.901,49.626 53.101,49.626 53.101,48.626" style="fill:none;stroke-width:0.050000mm;stroke:black"/>
<polygon points="15.288,48.626 15.288,49.626 14.488,49.626 14.488,52.726 15.288,52.726 15.288,58.526 14.488,58.526 14.488,61.626 15.288,61.626 15.288,62.626 29.288,62.626 29.288,61.626 30.088,61.626 30.088,58.526 29.288,58.526 29.288,52.726 30.088,52.726 30.088,49.626 29.288,49.626 29.288,48.626" style="fill:none;stroke-width:0.050000mm;stroke:black"/>
<polygon points="267.701,29.576 267.701,30.576 266.901,30.576 266.901,33.676 267.701,33.676 267.701,34.276 266.176,34.276 266.176,31.046 259.426,31.046 259.426,34.276 258.601,34.276 258.601,37.076 259.426,37.076 259.426,43.346 261.150,43.346 261.150,44.546 264.451,44.546 264.451,43.346 266.176,43.346 266.176,38.876 267.701,38.876 267.701,39.476 266.901,39.476 266.901,42.576 267.701,42.576 267.701,43.576 281.701,43.576 281.701,42.576 282.501,42.576 282.501,39.476 281.701,39.476 281.701,38.876 283.226,38.876 283.226,43.346 284.951,43.346 284.951,44.546 288.251,44.546 288.251,43.346 289.976,43.346 289.976,37.076 290.801,37.076 290.801,34.276 289.976,34.276 289.976,31.046 283.226,31.046 283.226,34.276 281.701,34.276 281.701,33.676 282.501,33.676 282.501,30.576 281.701,30.576 281.701,29.576" style="fill:none;stroke-width:0.050000mm;stroke:black"/>
<polygon points="239.126,29.576 239.126,30.576 238.326,30.576 238.326,33.676 239.126,33.676 239.126,39.476 238.326,39.476 238.326,42.576 239.126,42.576 239.126,43.576 253.126,43.576 253.126,42.576 253.926,42.576 253.926,39.476 253.126,39.476 253.126,33.676 253.926,33.676 253.926,30.576 253.126,30.576 253.126,29.576" style="fill:none;stroke-width:0.050000mm;stroke:black"/>
<polygon points="220.076,29.576 220.076,30.576 219.276,30.576 219.276,33.676 220.076,33.676 220.076,39.476 219.276,39.476 219.276,42.576 220.076,42.576 220.076,43.576 234.076,43.576 234.076,42.576 234.876,42.576 234.876,39.476 234.076,39.476 234.076,33.676 234.876,33.676 234.876,30.576 234.076,30.576 234.076,29.576" style="fill:none;stroke-width:0.050000mm;stroke:black"/>
<polygon points="201.026,29.576 201.026,30.576 200.226,30.576 200.226,33.676 201.026,33.676 201.026,39.476 200.226,39.476 200.226,42.576 201.026,42.576 201.026,43.576 215.026,43.576 215.026,42.576 215.826,42.576 215.826,39.476 215.026,39.476 215.026,33.676 215.826,33.676 215.826,30.576 215.026,30.576 215.026,29.576" style="fill:none;stroke-width:0.050000mm;stroke:black"/>
<polygon points="181.976,29.576 181.976,30.576 181.176,30.576 181.176,33.676 181.976,33.676 181.976,39.476 181.176,39.476 181.176,42.576 181.976,42.576 181.976,43.576 195.976,43.576 195.976,42.576 196.776,42.576 196.776,39.476 195.976,39.476 195.976,33.676 196.776,33.676 196.776,30.576 195.976,30.576 195.976,29.576" style="fill:none;stroke-width:0.050000mm;stroke:black"/>
<polygon points="162.926,29.576 162.926,30.576 162.126,30.576 162.126,33.676 162.926,33.676 162.926,39.476 162.126,39.476 162.126,42.576 162.926,42.576 162.926,43.576 176.926,43.576 176.926,42.576 177.726,42.576 177.726,39.476 176.926,39.476 176.926,33.676 177.726,33.676 177.726,30.576 176.926,30.576 176.926,29.576" style="fill:none;stroke-width:0.050000mm;stroke:black"/>
<polygon points="143.876,29.576 143.876,30.576 143.076,30.576 143.076,33.676 143.876,33.676 143.876,39.476 143.076,39.476 143.076,42.576 143.876,42.576 143.876,43.576 157.876,43.576 157.876,42.576 158.676,42.576 158.676,39.476 157.876,39.476 157.876,33.676 158.676,33.676 158.676,30.576 157.876,30.576 157.876,29.576" style="fill:none;stroke-width:0.050000mm;stroke:black"/>
<polygon points="124.825,29.576 124.825,30.576 124.025,30.576 124.025,33.676 124.825,33.676 124.825,39.476 124.025,39.476 124.025,42.576 124.825,42.576 124.825,43.576 138.826,43.576 138.826,42.576 139.626,42.576 139.626,39.476 138.826,39.476 138.826,33.676 139.626,33.676 139.626,30.576 138.826,30.576 138.826,29.576" style="fill:none;stroke-width:0.050000mm;stroke:black"/>
<polygon points="105.775,29.576 105.775,30.576 104.976,30.576 104.976,33.676 105.775,33.676 105.775,39.476 104.976,39.476 104.976,42.576 105.775,42.576 105.775,43.576 119.775,43.576 119.775,42.576 120.575,42.576 120.575,39.476 119.775,39.476 119.775,33.676 120.575,33.676 120.575,30.576 119.775,30.576 119.775,29.576" style="fill:none;stroke-width:0.050000mm;stroke:black"/>
<polygon points="86.726,29.576 86.726,30.576 85.926,30.576 85.926,33.676 86.726,33.676 86.726,39.476 85.926,39.476 85.926,42.576 86.726,42.576 86.726,43.576 100.726,43.576 100.726,42.576 101.525,42.576 101.525,39.476 100.726,39.476 100.726,33.676 101.525,33.676 101.525,30.576 100.726,30.576 100.726,29.576" style="fill:none;stroke-width:0.050000mm;stroke:black"/>
<polygon points="67.676,29.576 67.676,30.576 66.876,30.576 66.876,33.676 67.676,33.676 67.676,39.476 66.876,39.476 66.876,42.576 67.676,42.576 67.676,43.576 81.676,43.576 81.676,42.576 82.476,42.576 82.476,39.476 81.676,39.476 81.676,33.676 82.476,33.676 82.476,30.576 81.676,30.576 81.676,29.576" style="fill:none;stroke-width:0.050000mm;stroke:black"/>
<polygon points="48.626,29.576 48.626,30.576 47.826,30.576 47.826,33.676 48.626,33.676 48.626,39.476 47.826,39.476 47.826,42.576 48.626,42.576 48.626,43.576 62.626,43.576 62.626,42.576 63.426,42.576 63.426,39.476 62.626,39.476 62.626,33.676 63.426,33.676 63.426,30.576 62.626,30.576 62.626,29.576" style="fill:none;stroke-width:0.050000mm;stroke:black"/>
<polygon points="29.576,29.576 29.576,30.576 28.776,30.576 28.776,33.676 29.576,33.676 29.576,39.476 28.776,39.476 28.776,42.576 29.576,42.576 29.576,43.576 43.576,43.576 43.576,42.576 44.376,42.576 44.376,39.476 43.576,39.476 43.576,33.676 44.376,33.676 44.376,30.576 43.576,30.576 43.576,29.576" style="fill:none;stroke-width:0.050000mm;stroke:black"/>
<polygon points="10.525,29.576 10.525,30.576 9.725,30.576 9.725,33.676 10.525,33.676 10.525,39.476 9.725,39.476 9.725,42.576 10.525,42.576 10.525,43.576 24.526,43.576 24.526,42.576 25.326,42.576 25.326,39.476 24.526,39.476 24.526,33.676 25.326,33.676 25.326,30.576 24.526,30.576 24.526,29.576" style="fill:none;stroke-width:0.050000mm;stroke:black"/>
<polygon points="296.276,10.525 296.276,11.525 295.476,11.525 295.476,14.625 296.276,14.625 296.276,20.425 295.476,20.425 295.476,23.526 296.276,23.526 296.276,24.526 310.276,24.526 310.276,23.526 311.076,23.526 311.076,20.425 310.276,20.425 310.276,14.625 311.076,14.625 311.076,11.525 310.276,11.525 310.276,10.525" style="fill:none;stroke-width:0.050000mm;stroke:black"/>
<polygon points="277.226,10.525 277.226,11.525 276.426,11.525 276.426,14.625 277.226,14.625 277.226,20.425 276.426,20.425 276.426,23.526 277.226,23.526 277.226,24.526 291.226,24.526 291.226,23.526 292.026,23.526 292.026,20.425 291.226,20.425 291.226,14.625 292.026,14.625 292.026,11.525 291.226,11.525 291.226,10.525" style="fill:none;stroke-width:0.050000mm;stroke:black"/>
<polygon points="258.176,10.525 258.176,11.525 257.376,11.525 257.376,14.625 258.176,14.625 258.176,20.425 257.376,20.425 257.376,23.526 258.176,23.526 258.176,24.526 272.176,24.526 272.176,23.526 272.976,23.526 272.976,20.425 272.176,20.425 272.176,14.625 272.976,14.625 272.976,11.525 272.176,11.525 272.176,10.525" style="fill:none;stroke-width:0.050000mm;stroke:black"/>
<polygon points="239.126,10.525 239.126,11.525 238.326,11.525 238.326,14.625 239.126,14.625 239.126,20.425 238.326,20.425 238.326,23.526 239.126,23.526 239.126,24.526 253.126,24.526 253.126,23.526 253.926,23.526 253.926,20.425 253.126,20.425 253.126,14.625 253.926,14.625 253.926,11.525 253.126,11.525 253.126,10.525" style="fill:none;stroke-width:0.050000mm;stroke:black"/>
<polygon points="220.076,10.525 220.076,11.525 219.276,11.525 219.276,14.625 220.076,14.625 220.076,20.425 219.276,20.425 219.276,23.526 220.076,23.526 220.076,24.526 234.076,24.526 234.076,23.526 234.876,23.526 234.876,20.425 234.076,20.425 234.076,14.625 234.876,14.625 234.876,11.525 234.076,11.525 234.076,10.525" style="fill:none;stroke-width:0.050000mm;stroke:black"/>
<polygon points="201.026,10.525 201.026,11.525 200.226,11.525 200.226,14.625 201.026,14.625 201.026,20.425 200.226,20.425 200.226,23.526 201.026,23.526 201.026,24.526 215.026,24.526 215.026,23.526 215.826,23.526 215.826,20.425 215.026,20.425 215.026,14.625 215.826,14.625 215.826,11.525 215.026,11.525 215.026,10.525" style="fill:none;stroke-width:0.050000mm;stroke:black"/>
<polygon points="181.976,10.525 181.976,11.525 181.176,11.525 181.176,14.625 181.976,14.625 181.976,20.425 181.176,20.425 181.176,23.526 181.976,23.526 181.976,24.526 195.976,24.526 195.976,23.526 196.776,23.526 196.776,20.425 195.976,20.425 195.976,14.625 196.776,14.625 196.776,11.525 195.976,11.525 195.976,10.525" style="fill:none;stroke-width:0.050000mm;stroke:black"/>
<polygon points="162.926,10.525 162.926,11.525 162.126,11.525 162.126,14.625 162.926,14.625 162.926,20.425 162.126,20.425 162.126,23.526 162.926,23.526 162.926,24.526 176.926,24.526 176.926,23.526 177.726,23.526 177.726,20.425 176.926,20.425 176.926,14.625 177.726,14.625 177.726,11.525 176.926,11.525 176.926,10.525" style="fill:none;stroke-width:0.050000mm;stroke:black"/>
<polygon points="143.876,10.525 143.876,11.525 143.076,11.525 143.076,14.625 143.876,14.625 143.876,20.425 143.076,20.425 143.076,23.526 143.876,23.526 143.876,24.526 157.876,24.526 157.876,23.526 158.676,23.526 158.676,20.425 157.876,20.425 157.876,14.625 158.676,14.625 158.676,11.525 157.876,11.525 157.876,10.525" style="fill:none;stroke-width:0.050000mm;stroke:black"/>
<polygon points="124.825,10.525 124.825,11.525 124.025,11.525 124.025,14.625 124.825,14.625 124.825,20.425 124.025,20.425 124.025,23.526 124.825,23.526 124.825,24.526 138.826,24.526 138.826,23.526 139.626,23.526 139.626,20.425 138.826,20.425 138.826,14.625 139.626,14.625 139.626,11.525 138.826,11.525 138.826,10.525" style="fill:none;stroke-width:0.050000mm;stroke:black"/>
<polygon points="105.775,10.525 105.775,11.525 104.976,11.525 104.976,14.625 105.775,14.625 105.775,20.425 104.976,20.425 104.976,23.526 105.775,23.526 105.775,24.526 119.775,24.526 119.775,23.526 120.575,23.526 120.575,20.425 119.775,20.425 119.775,14.625 120.575,14.625 120.575,11.525 119.775,11.525 119.775,10.525" style="fill:none;stroke-width:0.050000mm;stroke:black"/>
<polygon points="86.726,10.525 86.726,11.525 85.926,11.525 85.926,14.625 86.726,14.625 86.726,20.425 85.926,20.425 85.926,23.526 86.726,23.526 86.726,24.526 100.726,24.526 100.726,23.526 101.525,23.526 101.525,20.425 100.726,20.425 100.726,14.625 101.525,14.625 101.525,11.525 100.726,11.525 100.726,10.525" style="fill:none;stroke-width:0.050000mm;stroke:black"/>
<polygon points="67.676,10.525 67.676,11.525 66.876,11.525 66.876,14.625 67.676,14.625 67.676,20.425 66.876,20.425 66.876,23.526 67.676,23.526 67.676,24.526 81.676,24.526 81.676,23.526 82.476,23.526 82.476,20.425 81.676,20.425 81.676,14.625 82.476,14.625 82.476,11.525 81.676,11.525 81.676,10.525" style="fill:none;stroke-width:0.050000mm;stroke:black"/>
<polygon points="48.626,10.525 48.626,11.525 47.826,11.525 47.826,14.625 48.626,14.625 48.626,20.425 47.826,20.425 47.826,23.526 48.626,23.526 48.626,24.526 62.626,24.526 62.626,23.526 63.426,23.526 63.426,20.425 62.626,20.425 62.626,14.625 63.426,14.625 63.426,11.525 62.626,11.525 62.626,10.525" style="fill:none;stroke-width:0.050000mm;stroke:black"/>
<polygon points="29.576,10.525 29.576,11.525 28.776,11.525 28.776,14.625 29.576,14.625 29.576,20.425 28.776,20.425 28.776,23.526 29.576,23.526 29.576,24.526 43.576,24.526 43.576,23.526 44.376,23.526 44.376,20.425 43.576,20.425 43.576,14.625 44.376,14.625 44.376,11.525 43.576,11.525 43.576,10.525" style="fill:none;stroke-width:0.050000mm;stroke:black"/>
<polygon points="10.525,10.525 10.525,11.525 9.725,11.525 9.725,14.625 10.525,14.625 10.525,20.425 9.725,20.425 9.725,23.526 10.525,23.526 10.525,24.526 24.526,24.526 24.526,23.526 25.326,23.526 25.326,20.425 24.526,20.425 24.526,14.625 25.326,14.625 25.326,11.525 24.526,11.525 24.526,10.525" style="fill:none;stroke-width:0.050000mm;stroke:black"/>
</svg>
